<svg xmlns="http://www.w3.org/2000/svg" viewBox="0 0 91.86 91.22"><defs><style>.cls-1{fill:#0098ba;}</style></defs>
  <path class="cls-1" d="M91.82,34.76a1.59,1.59,0,0,0-1.91-1.18L78.74,36.21l3.31-5.35a1.59,1.59,0,0,0-2.71-1.68l-5,8.06-4.69,1.1,3.38-9.41a2,2,0,0,0-3.72-1.34L65.08,39.42l-16.9,4,4.43-16.61,12-3.92a2,2,0,0,0-1.22-3.76l-9.59,3.13,1.24-4.63,8.28-4.8a1.59,1.59,0,1,0-1.59-2.75l-5.54,3.2L59.21,2A1.59,1.59,0,0,0,58.09.05a1.6,1.6,0,0,0-2,1.13l-3,11.09L50,6.82a1.59,1.59,0,0,0-2.17-.58A1.61,1.61,0,0,0,47.1,8a1.85,1.85,0,0,0,.18.44L52,16.62l-1.24,4.65-6.71-7.42a2,2,0,1,0-2.93,2.64l8.42,9.33L45.08,42.66,32.31,31l2.07-12.48a2,2,0,0,0-3.89-.65l-1.66,10-3.54-3.24L24.86,15a1.59,1.59,0,1,0-3.18.14L22,21.55l-8.6-7.86a1.6,1.6,0,0,0-2.25.1,1.57,1.57,0,0,0-.37,1.44,1.64,1.64,0,0,0,.47.81l8.48,7.74-6.29.28a1.6,1.6,0,0,0-1.52,1.66,1.54,1.54,0,0,0,0,.3,1.58,1.58,0,0,0,1.62,1.22L23,26.81l3.56,3.25-9.69,2.52A2,2,0,0,0,15.47,35v0a2,2,0,0,0,2.41,1.42l12.16-3.17L42.64,44.73l-16.45,3.9L17,39.9a2,2,0,1,0-2.73,2.85l7.3,7-4.67,1.1-8.15-5a1.59,1.59,0,0,0-1.67,2.71l5.44,3.35L1.22,54.55A1.59,1.59,0,0,0,0,56.46H0A1.59,1.59,0,0,0,2,57.64L13.12,55l-3.3,5.36A1.59,1.59,0,0,0,12.53,62l5-8.07,4.69-1.11-3.37,9.42a2,2,0,0,0-.06,1.12A2,2,0,0,0,20,64.8a2,2,0,0,0,2.52-1.2l4.23-11.84,17-4-4.48,16.7-12,3.9a2,2,0,0,0-1.31,2.33.75.75,0,0,0,0,.16,2,2,0,0,0,2.49,1.27L38.05,69l-1.24,4.63L28.52,78.4a1.59,1.59,0,0,0-.75,1.74,1.49,1.49,0,0,0,.17.44,1.59,1.59,0,0,0,2.17.58L35.65,78l-3,11.26a1.55,1.55,0,0,0,0,.77A1.59,1.59,0,0,0,35.7,90l3-11.08,3.15,5.45a1.59,1.59,0,0,0,2.75-1.59l-4.73-8.21L41.09,70l6.69,7.43a2,2,0,0,0,2.94-2.64l-8.41-9.34,4.52-16.87L59.56,60.2,57.47,72.68a1.81,1.81,0,0,0,0,.77,2,2,0,0,0,3.87-.12L63,63.38l3.53,3.24L67,76.18c0,.1,0,.2,0,.3A1.59,1.59,0,0,0,70.16,76l-.28-6.38,8.59,7.87a1.59,1.59,0,1,0,2.15-2.35l-8.46-7.75,6.29-.27A1.59,1.59,0,0,0,78.31,64l-9.47.41-3.55-3.25L75,58.63a2,2,0,0,0-1-3.82L61.82,58,49.23,46.42l16.43-3.87L74.8,51.3a2,2,0,1,0,2.73-2.85l-7.28-7,4.66-1.1,8.14,5a1.59,1.59,0,1,0,1.68-2.7l-5.44-3.36,11.35-2.67A1.6,1.6,0,0,0,91.82,34.76Z">
    <animateTransform
      attributeName="transform"
      dur="4s"
      from="0 45 45"
      to="360 45 45"
      type="rotate"
      attributeType="auto"
      repeatCount="indefinite"
      />
  </path>
</svg>