<svg xmlns="http://www.w3.org/2000/svg" xmlns:xlink="http://www.w3.org/1999/xlink" viewBox="0 0 503.98 492.47">
  <defs>
    <style>
      .cls-1 {
        fill: none;
      }

      .cls-2 {
        fill: #f9b390;
      }

      .cls-3 {
        fill: #f7a379;
      }

      .cls-4 {
        fill: #c6622b;
      }

      .cls-5 {
        fill: #f47676;
        opacity: 0.29;
      }

      .cls-6 {
        fill: #e53030;
      }

      .cls-7 {
        fill: #ed3624;
      }

      .cls-8 {
        fill: #f6d0ca;
      }

      .cls-9 {
        fill: #383838;
      }

      .cls-10 {
        fill: #f6c356;
      }

      .cls-11 {
        fill: #fffaef;
      }

      .cls-12 {
        opacity: 0.53;
      }

      .cls-13 {
        fill: #751f1f;
      }

      .cls-14 {
        fill: #02a699;
      }

      .cls-15 {
        fill: #0e9186;
      }

      .cls-16 {
        fill: #ef4b4b;
      }

      .cls-17 {
        fill: #97211f;
      }

      .cls-18 {
        fill: #ede1df;
      }

      .cls-19 {
        fill: #ffedc5;
        filter: blur(10px);
      }

      .cls-20 {
        fill: #05b6a9;
      }

      .cls-21 {
        clip-path: url(#clip-path);
      }

      .cls-22 {
        fill: #5ac4c2;
      }

      .cls-23 {
        fill: #ed3724;
      }

      .cls-24 {
        fill: #f8a67b;
      }

      .cls-25 {
        fill: #f18650;
      }

      .cls-26 {
        fill: #d09f36;
      }

      .cls-27 {
        fill: #e8fafd;
      }

      .cls-28 {
        fill: #ca952b;
      }
    </style>
    <clipPath id="clip-path">
      <polygon class="cls-1"
        points="256.18 224.48 146.48 225.46 148.77 233.17 177.18 328.49 288.56 329.55 289.63 329.56 360.53 268.53 329.08 166.48 256.18 224.48" />
    </clipPath>
  </defs>
  <title>資產 13</title>
  <g id="圖層_2" data-name="圖層 2">
    <g id="Layer_1" data-name="Layer 1">
      <path class="cls-2"
        d="M283.36,73.41c-1.21,9.19,7.1,19.67,15.12,23,7.11,2.92,17.51,2.49,18.72-7.73,1.11-9.38-6.47-17.65-14.57-21.07C296.34,64.92,284.54,64.49,283.36,73.41Z" />
      <path class="cls-3"
        d="M304.26,89.71c-3.6-3.16-7.33-7.44-8.24-11.85-.72-3.45-.81-7.66,1.72-10.9a8.8,8.8,0,0,1,.64-.73c-6.18-.69-13.88,0-15,7.18-1.41,8.92,6.92,19.18,15.12,23,4.53,2.09,10.89,3.07,15-.59A41.77,41.77,0,0,1,304.26,89.71Z" />
      <path class="cls-4"
        d="M309.08,79.72a9.42,9.42,0,0,0-4.56-2.27,16.45,16.45,0,0,0-4.17-.44,10.83,10.83,0,0,0-6.75,2.33,7.7,7.7,0,0,0-2.21,3.12c-.19.48.74,1.11.93.64,1.76-4.42,7-5.74,11.33-5a9,9,0,0,1,4.87,2.12c.5.49,1.06,0,.56-.53Z" />
      <path class="cls-2"
        d="M430.59,107.13c-5,44.69-45.7,69.31-88.4,64.22-18.89-2.24-37.56-9.71-49.47-25.13a63.58,63.58,0,0,1-11.74-51c2.52-12.39,7.85-23.44,15.12-33.93,15.35-22.11,42.24-38.26,69.33-35.5,25.33,2.57,50.09,18.66,60,43.18A78.84,78.84,0,0,1,430.59,107.13Z" />
      <path class="cls-2"
        d="M416.53,94.09c-1.21,9.19,7.1,19.67,15.11,23,7.12,2.93,17.52,2.49,18.73-7.72,1.11-9.38-6.47-17.65-14.57-21.07C429.51,85.6,417.71,85.17,416.53,94.09Z" />
      <path class="cls-3"
        d="M437.43,110.39c-3.6-3.16-7.33-7.44-8.24-11.86-.72-3.45-.81-7.65,1.72-10.89a8.93,8.93,0,0,1,.64-.74c-6.18-.69-13.88,0-15,7.19-1.41,8.92,6.92,19.18,15.11,23,4.53,2.1,10.9,3.08,15-.58A42.13,42.13,0,0,1,437.43,110.39Z" />
      <path class="cls-4"
        d="M442.25,100.39a9.4,9.4,0,0,0-4.56-2.26,16,16,0,0,0-4.17-.44,10.8,10.8,0,0,0-6.75,2.32,7.74,7.74,0,0,0-2.21,3.13c-.19.47.74,1.11.93.64,1.76-4.42,7-5.74,11.32-5a9.08,9.08,0,0,1,4.88,2.11c.5.5,1.06,0,.56-.53Z" />
      <path class="cls-5" d="M414.73,97.06s-35.19-10.7-50.25,9.94l5.31,23.65,37.53,11.22S427,99.4,414.73,97.06Z" />
      <path class="cls-5" d="M288.75,88.3s20.53,1.45,26.13,19.54C314.88,107.84,280.66,128.27,288.75,88.3Z" />
      <path class="cls-6"
        d="M494,292.81h0c-17.14-23.17-201,11-201,11S239.1,341.5,231.1,381c11.71,5.44,16.64,27.28,28.92,23.65,10.52-3.11,39.21-5.32,79.11-26.38,13.65,5.78,28.77,6.57,40.73,5.85,6.26,18.06,24.32,42.93,34.21,52.18,0,0,10.9,1.93,33.23,3.12,0,0,15.32-2.5,39-64.82C501.77,352.65,513,318.44,494,292.81Z" />
      <path class="cls-7"
        d="M493.77,283.86c-29,20.06-62.17,31.15-96.15,39.6-17.1,4.26-33.79,8-51.54,7.41s-35.3-4.54-52.68-8.31c-13.86-25-24-50.58-26.48-79.27-2.12-24.33-1.42-49.44,3.18-73.45,47.32-14.09,93.52-31.54,140.77-45.76,19.07,20.54,35.77,42.71,48.4,67.81C474,221.2,483.58,252.77,493.77,283.86Z" />
      <path class="cls-8"
        d="M317.86,154.09c-6.07,69.58,5.19,110.56,30.38,161.54,6.8-.71,13.59-1.47,20.38-2.34-23.73-53.7-35.73-104.11-27-166.65Q329.77,150.44,317.86,154.09Z" />
      <path class="cls-9"
        d="M428.23,254.13a251.5,251.5,0,0,0,47.16-24.69q3.12,7.6,6.3,15.19C423.91,284.2,345.84,300,276.77,287.84c-1.68-4.49-3.25-9-4.7-13.61,53.08,3.85,107.11-.65,156.16-20.1" />
      <path class="cls-10"
        d="M361.68,274.51c-2.41-4-7.32-6.16-12-6q-12.48.69-24.95,1.47a9.07,9.07,0,0,0-3.79,1,5,5,0,0,0-2.75,5.54,6.74,6.74,0,0,0,.42,1.27c1.76,4,3.59,7.89,5.46,11.79a7.83,7.83,0,0,0,.65,1.11,14.76,14.76,0,0,0,7.52,5.24,13.85,13.85,0,0,0,4.37.69c8.05-.09,16.1-.16,24.15-.28,4.76-.07,7.53-3.22,6.61-7.09a8.72,8.72,0,0,0-.27-.88q-2.43-6.36-4.85-12.73A6.83,6.83,0,0,0,361.68,274.51Zm-3.47,15.57c-8.14.19-16.27.35-24.41.55a2.5,2.5,0,0,1-2.22-1.24c-1.83-4-3.63-8-5.37-12a.87.87,0,0,1,.11-1,1.39,1.39,0,0,1,1-.41c8.28-.44,16.56-.82,24.85-1.21a2.62,2.62,0,0,1,1.45.4,2,2,0,0,1,.77.87q2.46,6.3,5,12.59a.94.94,0,0,1-.48,1.26A1.55,1.55,0,0,1,358.21,290.08Z" />
      <path class="cls-11"
        d="M286.87,310.46c28.58,3.23,70.31,3,105.74-6.4,32.69-8.66,82.29-28.55,94.84-39.77,2.31-2.06,11.12,14.17,11.16,22.77-5.18,9.5-22,15.33-31.16,19.3-21.83,9.46-45,16.1-67.93,21.7-23.66,5.77-46.13,9.14-70.61,6.6-11.05-1.15-25.15-1.49-33-4.81C292.22,328.28,278.22,311.79,286.87,310.46Z" />
      <path class="cls-9" d="M231.45,435.46l-40.53-43.64s7.34-21,26.72-6a59.57,59.57,0,0,1,14.82,20.3l16.08,15.56Z" />
      <polygon class="cls-9" points="229.45 380.15 261 411.65 231.45 435.46 213.52 416.15 229.45 380.15" />
      <path class="cls-9" d="M454.41,480.45l-59.52-2.2s-9.64-20,14.66-23.13A59.54,59.54,0,0,1,434.38,459l22.37-.37Z" />
      <polygon class="cls-9" points="413.88 442.76 458.47 442.72 454.41 480.45 428.08 479.48 413.88 442.76" />
      <path class="cls-11"
        d="M234.29,370.08c-3.57-1.68-12.12,6.06-4.49,14.21,8.7,8,30.94,26.47,30.94,26.47,4.14,2.58,13-2.63,9.8-9.23C265.82,396.29,234.29,370.08,234.29,370.08Z" />
      <path class="cls-11"
        d="M410.09,431.7c-3.84.92-5.68,12.3,5.37,13.89,11.81.83,40.7,1.32,40.7,1.32,4.85-.57,8.52-10.19,1.88-13.33C451.08,432.44,410.09,431.7,410.09,431.7Z" />
      <path class="cls-11"
        d="M281,95.26c-41.76,49.1-15.15,80.37-13.14,80.78s3.7-3.34,4.48-7.17c-.15,11.59-.32,63.31,49.41,74.9,45.27,10.54,72.73-36,75.57-41.77,1.71,2.15-2.56,10.1-.48,10.34,14.55,1.68,42.9-36.71,30.28-81.42-.68-2.81,9.62-19.59-2.25-43-.24-2.83-6.35-6.11-8-.64s-5.78,38.16-18.38,37.87-6.83-14.67-48.39-21.23c-34.74-5.49-42.16,6.9-51.5,4.19-8.49-2.46-8.05-13-7.9-20.16.08-3.95,1.7-10.13-.65-13.7-2.65-4-5.48,2.86-6.51,7.59" />
      <path class="cls-2"
        d="M321.66,86.66a13.66,13.66,0,0,0-5.08,9A12.9,12.9,0,0,0,320,106.36c4.38,4.28,12.06,4,19.49-3.61A32.22,32.22,0,0,0,347,90.22c.66-2.06,1.39-4.92.59-7-1.09-2.88-6.08-2.32-8.54-2.2C333.25,81.3,326.31,82.85,321.66,86.66Z" />
      <g class="cls-12">
        <path class="cls-13"
          d="M319.92,106.4a14.06,14.06,0,0,1-3.87-6.2,10.72,10.72,0,0,1,.53-7.39,15.51,15.51,0,0,1,4.57-5.9,24.59,24.59,0,0,1,6.41-3.65l.05.1c-2,1.46-3.92,2.86-5.68,4.46a19.11,19.11,0,0,0-4.48,5.39,10,10,0,0,0-.83,6.84,13.9,13.9,0,0,0,3.38,6.27Z" />
      </g>
      <circle class="cls-5" cx="319.95" cy="95.41" r="1.3" />
      <circle class="cls-5" cx="323.18" cy="90.47" r="0.92" />
      <circle class="cls-5" cx="324.37" cy="94.06" r="0.92" />
      <polygon class="cls-14" points="146.48 225.46 256.18 224.48 329.08 166.48 227.19 171.3 146.48 225.46" />
      <polygon class="cls-15" points="227.19 171.3 242.98 225.25 256.18 224.48 329.08 166.48 227.19 171.3" />
      <path class="cls-6"
        d="M362.71,115c.57,5.84-4,15.28-19.46,16.79-14.36,1.4-20.69-7-21.26-12.82s9.53,0,20.77-1.12S362.14,109.13,362.71,115Z" />
      <path class="cls-16"
        d="M351.46,126.55c.15,1.58-3.35,3.21-7.82,3.65s-8.22-.49-8.37-2.07,4.08-6.71,7.82-3.64C346.3,121.17,351.31,125,351.46,126.55Z" />
      <ellipse class="cls-11" cx="327.48" cy="45.51" rx="10.83" ry="16.66"
        transform="translate(270.92 371.27) rotate(-88.06)" />
      <ellipse class="cls-11" cx="356.77" cy="43.13" rx="14.75" ry="19.75"
        transform="translate(301.6 398.24) rotate(-88.06)" />
      <ellipse class="cls-11" cx="387.32" cy="49.53" rx="15.9" ry="23.63"
        transform="translate(196.4 390.15) rotate(-68.02)" />
      <ellipse class="cls-17" cx="372.83" cy="79.06" rx="7.39" ry="6.19"
        transform="translate(281.21 449) rotate(-88.06)" />
      <ellipse class="cls-17" cx="316.82" cy="72.83" rx="6.34" ry="5.31"
        transform="translate(233.31 387) rotate(-88.06)" />
      <path class="cls-17"
        d="M372.59,86.13a7.8,7.8,0,0,1,2.12-.76,11.21,11.21,0,0,1,2.24-.24,7.14,7.14,0,0,1,4.29,1.29c-.76-.1-1.46-.2-2.17-.25s-1.41-.08-2.12-.08C375.52,86.08,374.1,86.15,372.59,86.13Z" />
      <path class="cls-17"
        d="M316,79a5.87,5.87,0,0,1,1.82-.5,8,8,0,0,1,1.9,0,5.57,5.57,0,0,1,3.44,1.53c-.64-.13-1.21-.25-1.8-.35s-1.16-.17-1.75-.23C318.41,79.33,317.24,79.25,316,79Z" />
      <path class="cls-11"
        d="M472.43,60.17c-3,6.12-11.5,6.71-16.92,3.71-5.07-2.79-9.77-9.12-6.52-14.89,3.09-5.49,11.48-6.35,16.78-4.19C471.48,47.12,475.24,54.42,472.43,60.17Z" />
      <path class="cls-7"
        d="M335.47,15.17c-.4-1.35,58.52-22.6,82.45-12.42,25.93,11,16.41,65.6,16.41,65.6C429.28,68.81,335.47,15.17,335.47,15.17Z" />
      <path class="cls-7"
        d="M414,1.12c3.05-2.34,39.05,25.39,49,47,.47,1.4-.49,6.35-5.16,6.44-8.49.15-17.09-7.57-23.53-12.58C421.84,32.3,413.48,1.53,414,1.12Z" />
      <path class="cls-18"
        d="M425.92,102.65a28.69,28.69,0,0,1-3.05-.93c2.43-32.57-23.58-54.93-52.23-63.31-28.94-8.47-60.17,4.05-78.11,28.2A20,20,0,0,1,289,54.27,29,29,0,0,1,292.7,42C299.2,30.31,313,22.06,325,18c28.3-8.65,56.41-3.36,80.56,13.5,13.14,9.18,29.12,22.69,34.2,38.3a47.26,47.26,0,0,1,2,12.18C442.14,93.27,438.91,105.87,425.92,102.65Z" />
      <path class="cls-11"
        d="M441.73,82c-3.22,3.21-7.3,1.86-7.75-3.28-.66-7.58-26.27-55.35-74.7-56.76S306,44.06,297.8,44.24c-2.76.06-4.28-.92-5.1-2.23C299.2,30.31,313,22.06,325,18c28.3-8.65,56.41-3.36,80.56,13.5,13.14,9.18,29.12,22.69,34.2,38.3A47.26,47.26,0,0,1,441.73,82Z" />
      <path class="cls-17"
        d="M430.78,21.82a36.49,36.49,0,0,1,3.68,10.6A55.91,55.91,0,0,1,435,50.5c-.06.44.87.69.93.24a57.67,57.67,0,0,0,.3-11.67,50.59,50.59,0,0,0-2.18-11.67,33.87,33.87,0,0,0-2.47-5.85c-.26-.47-1.09-.2-.83.27Z" />
      <circle class="cls-19" cx="250" cy="240" r="55">
        <animate 
          attributeType="auto" 
          attributeName="opacity" 
          dur="1s" 
          values="0.4;0.8;0.4" 
          repeatCount="indefinite"
          begin="0" />
      </circle>
      <polygon class="cls-20"
        points="255.75 224.53 288.13 329.6 176.76 328.54 148.35 233.22 146.05 225.51 255.75 224.53" />
      <polygon class="cls-20"
        points="328.65 166.53 360.11 268.58 289.21 329.61 288.13 329.6 255.75 224.53 328.65 166.53" />
      <g class="cls-21">
        <ellipse class="cls-22" cx="63.6" cy="221.34" rx="4.28" ry="5.96"
          transform="translate(-155.76 151.22) rotate(-56.24)" />
        <ellipse class="cls-22" cx="86.04" cy="221.86" rx="4.28" ry="5.96"
          transform="translate(-146.23 170.11) rotate(-56.24)" />
        <ellipse class="cls-22" cx="108.48" cy="222.39" rx="4.28" ry="5.96"
          transform="translate(-136.7 189) rotate(-56.24)" />
        <path class="cls-22"
          d="M136.21,223c.82,2.68-.88,4.8-3.8,4.74a7.67,7.67,0,0,1-6.78-5c-.83-2.68.87-4.81,3.79-4.74A7.69,7.69,0,0,1,136.21,223Z" />
        <ellipse class="cls-22" cx="153.36" cy="223.44" rx="4.28" ry="5.96"
          transform="matrix(0.56, -0.83, 0.83, 0.56, -117.63, 226.77)" />
        <ellipse class="cls-22" cx="175.8" cy="223.96" rx="4.28" ry="5.96"
          transform="translate(-108.09 245.67) rotate(-56.24)" />
        <ellipse class="cls-22" cx="198.24" cy="224.49" rx="4.28" ry="5.96"
          transform="translate(-98.56 264.56) rotate(-56.24)" />
        <ellipse class="cls-22" cx="220.68" cy="225.01" rx="4.28" ry="5.96"
          transform="matrix(0.56, -0.83, 0.83, 0.56, -89.03, 283.44)" />
        <ellipse class="cls-22" cx="243.11" cy="225.54" rx="4.28" ry="5.96"
          transform="translate(-79.49 302.33) rotate(-56.24)" />
        <ellipse class="cls-22" cx="78.79" cy="236.59" rx="4.28" ry="5.96"
          transform="matrix(0.56, -0.83, 0.83, 0.56, -161.69, 170.62)" />
        <ellipse class="cls-22" cx="101.23" cy="237.11" rx="4.28" ry="5.96"
          transform="translate(-152.15 189.51) rotate(-56.24)" />
        <ellipse class="cls-22" cx="123.67" cy="237.63" rx="4.28" ry="5.96"
          transform="translate(-142.62 208.4) rotate(-56.24)" />
        <ellipse class="cls-22" cx="146.11" cy="238.16" rx="4.28" ry="5.96"
          transform="translate(-133.09 227.29) rotate(-56.24)" />
        <ellipse class="cls-22" cx="168.55" cy="238.68" rx="4.28" ry="5.96"
          transform="translate(-123.55 246.18) rotate(-56.24)" />
        <ellipse class="cls-22" cx="190.99" cy="239.21" rx="4.28" ry="5.96"
          transform="translate(-114.02 265.07) rotate(-56.24)" />
        <ellipse class="cls-22" cx="213.43" cy="239.73" rx="4.28" ry="5.96"
          transform="translate(-104.48 283.96) rotate(-56.24)" />
        <ellipse class="cls-22" cx="235.87" cy="240.26" rx="4.28" ry="5.96"
          transform="translate(-94.95 302.85) rotate(-56.24)" />
        <path class="cls-22"
          d="M257.52,236a5.69,5.69,0,0,0-.71-.07c-2.92-.07-4.62,2.06-3.79,4.74a7.67,7.67,0,0,0,6.78,5,5.12,5.12,0,0,0,.69,0Z" />
        <ellipse class="cls-22" cx="72.84" cy="251.4" rx="4.28" ry="5.96"
          transform="translate(-176.64 172.26) rotate(-56.24)" />
        <ellipse class="cls-22" cx="95.28" cy="251.92" rx="4.28" ry="5.96"
          transform="translate(-167.11 191.15) rotate(-56.24)" />
        <ellipse class="cls-22" cx="117.72" cy="252.45" rx="4.28" ry="5.96"
          transform="translate(-157.58 210.04) rotate(-56.24)" />
        <ellipse class="cls-22" cx="140.16" cy="252.97" rx="4.28" ry="5.96"
          transform="translate(-148.04 228.93) rotate(-56.24)" />
        <ellipse class="cls-22" cx="162.6" cy="253.5" rx="4.28" ry="5.96"
          transform="translate(-138.51 247.82) rotate(-56.24)" />
        <path class="cls-22"
          d="M190.33,254.14c.83,2.69-.87,4.81-3.79,4.74a7.69,7.69,0,0,1-6.79-5c-.83-2.69.87-4.81,3.79-4.74A7.69,7.69,0,0,1,190.33,254.14Z" />
        <ellipse class="cls-22" cx="207.48" cy="254.55" rx="4.28" ry="5.96"
          transform="translate(-119.44 285.6) rotate(-56.24)" />
        <ellipse class="cls-22" cx="229.92" cy="255.07" rx="4.28" ry="5.96"
          transform="translate(-109.91 304.48) rotate(-56.24)" />
        <ellipse class="cls-22" cx="252.36" cy="255.59" rx="4.28" ry="5.96"
          transform="translate(-100.37 323.37) rotate(-56.24)" />
        <ellipse class="cls-22" cx="88.03" cy="266.64" rx="4.28" ry="5.96"
          transform="translate(-182.57 191.66) rotate(-56.24)" />
        <ellipse class="cls-22" cx="110.47" cy="267.17" rx="4.28" ry="5.96"
          transform="translate(-173.03 210.55) rotate(-56.24)" />
        <ellipse class="cls-22" cx="132.91" cy="267.69" rx="4.28" ry="5.96"
          transform="translate(-163.5 229.44) rotate(-56.24)" />
        <ellipse class="cls-22" cx="155.35" cy="268.22" rx="4.28" ry="5.96"
          transform="translate(-153.97 248.33) rotate(-56.24)" />
        <ellipse class="cls-22" cx="177.79" cy="268.74" rx="4.28" ry="5.96"
          transform="matrix(0.56, -0.83, 0.83, 0.56, -144.43, 267.22)" />
        <ellipse class="cls-22" cx="200.23" cy="269.27" rx="4.28" ry="5.96"
          transform="translate(-134.9 286.11) rotate(-56.24)" />
        <ellipse class="cls-22" cx="222.67" cy="269.79" rx="4.28" ry="5.96"
          transform="translate(-125.37 305) rotate(-56.24)" />
        <ellipse class="cls-22" cx="245.11" cy="270.32" rx="4.28" ry="5.96"
          transform="translate(-115.83 323.89) rotate(-56.24)" />
        <path class="cls-22"
          d="M266.78,266.05a4.39,4.39,0,0,0-.72-.07c-2.93-.07-4.62,2-3.8,4.74a7.7,7.7,0,0,0,6.79,5,5.39,5.39,0,0,0,.7,0Z" />
        <ellipse class="cls-22" cx="82.09" cy="281.45" rx="4.28" ry="5.96"
          transform="translate(-197.52 193.3) rotate(-56.24)" />
        <ellipse class="cls-22" cx="104.53" cy="281.98" rx="4.28" ry="5.96"
          transform="translate(-187.99 212.19) rotate(-56.24)" />
        <ellipse class="cls-22" cx="126.97" cy="282.5" rx="4.28" ry="5.96"
          transform="translate(-178.46 231.07) rotate(-56.24)" />
        <ellipse class="cls-22" cx="149.4" cy="283.03" rx="4.28" ry="5.96"
          transform="translate(-168.92 249.97) rotate(-56.24)" />
        <ellipse class="cls-22" cx="171.84" cy="283.55" rx="4.28" ry="5.96"
          transform="translate(-159.39 268.85) rotate(-56.24)" />
        <path class="cls-22"
          d="M199.57,284.2c.83,2.68-.87,4.81-3.79,4.74a7.69,7.69,0,0,1-6.79-5c-.82-2.68.88-4.8,3.8-4.74A7.67,7.67,0,0,1,199.57,284.2Z" />
        <path class="cls-22"
          d="M222,284.72c.83,2.69-.87,4.81-3.79,4.74a7.7,7.7,0,0,1-6.79-5c-.82-2.69.88-4.81,3.8-4.74A7.68,7.68,0,0,1,222,284.72Z" />
        <ellipse class="cls-22" cx="239.16" cy="285.13" rx="4.28" ry="5.96"
          transform="translate(-130.79 325.52) rotate(-56.24)" />
        <ellipse class="cls-22" cx="261.6" cy="285.65" rx="4.28" ry="5.96"
          transform="translate(-121.25 344.41) rotate(-56.24)" />
        <ellipse class="cls-22" cx="97.28" cy="296.7" rx="4.28" ry="5.96"
          transform="translate(-203.45 212.7) rotate(-56.24)" />
        <ellipse class="cls-22" cx="119.72" cy="297.22" rx="4.28" ry="5.96"
          transform="translate(-193.92 231.59) rotate(-56.24)" />
        <ellipse class="cls-22" cx="142.16" cy="297.75" rx="4.28" ry="5.96"
          transform="translate(-184.38 250.48) rotate(-56.24)" />
        <ellipse class="cls-22" cx="164.6" cy="298.27" rx="4.28" ry="5.96"
          transform="translate(-174.85 269.37) rotate(-56.24)" />
        <ellipse class="cls-22" cx="187.04" cy="298.8" rx="4.28" ry="5.96"
          transform="translate(-165.31 288.26) rotate(-56.24)" />
        <ellipse class="cls-22" cx="209.48" cy="299.32" rx="4.28" ry="5.96"
          transform="translate(-155.78 307.15) rotate(-56.24)" />
        <ellipse class="cls-22" cx="231.92" cy="299.85" rx="4.28" ry="5.96"
          transform="translate(-146.25 326.04) rotate(-56.24)" />
        <ellipse class="cls-22" cx="254.36" cy="300.37" rx="4.28" ry="5.96"
          transform="translate(-136.71 344.93) rotate(-56.24)" />
        <path class="cls-22"
          d="M276.05,296.1c-.25,0-.5-.06-.75-.07-2.92-.06-4.62,2.06-3.79,4.74a7.67,7.67,0,0,0,6.78,5,5.58,5.58,0,0,0,.72,0Z" />
        <ellipse class="cls-22" cx="91.33" cy="311.51" rx="4.28" ry="5.96"
          transform="translate(-218.4 214.33) rotate(-56.24)" />
        <ellipse class="cls-22" cx="113.77" cy="312.03" rx="4.28" ry="5.96"
          transform="translate(-208.87 233.23) rotate(-56.24)" />
        <ellipse class="cls-22" cx="136.21" cy="312.56" rx="4.28" ry="5.96"
          transform="translate(-199.34 252.12) rotate(-56.24)" />
        <ellipse class="cls-22" cx="158.65" cy="313.08" rx="4.28" ry="5.96"
          transform="translate(-189.8 271.01) rotate(-56.24)" />
        <ellipse class="cls-22" cx="181.09" cy="313.61" rx="4.28" ry="5.96"
          transform="matrix(0.56, -0.83, 0.83, 0.56, -180.27, 289.89)" />
        <ellipse class="cls-22" cx="203.53" cy="314.13" rx="4.28" ry="5.96"
          transform="translate(-170.74 308.78) rotate(-56.24)" />
        <path class="cls-22"
          d="M231.26,314.78c.82,2.68-.88,4.81-3.8,4.74a7.67,7.67,0,0,1-6.78-5c-.83-2.68.87-4.8,3.79-4.74A7.69,7.69,0,0,1,231.26,314.78Z" />
        <path class="cls-22"
          d="M253.7,315.3c.82,2.69-.88,4.81-3.8,4.74a7.68,7.68,0,0,1-6.78-5c-.83-2.69.87-4.81,3.79-4.74A7.7,7.7,0,0,1,253.7,315.3Z" />
        <ellipse class="cls-22" cx="270.85" cy="315.71" rx="4.28" ry="5.96"
          transform="translate(-142.13 365.45) rotate(-56.24)" />
        <ellipse class="cls-22" cx="106.52" cy="326.75" rx="4.28" ry="5.96"
          transform="translate(-224.33 233.74) rotate(-56.24)" />
        <ellipse class="cls-22" cx="128.96" cy="327.28" rx="4.28" ry="5.96"
          transform="translate(-214.8 252.63) rotate(-56.24)" />
        <ellipse class="cls-22" cx="151.4" cy="327.8" rx="4.28" ry="5.96"
          transform="translate(-205.26 271.52) rotate(-56.24)" />
        <ellipse class="cls-22" cx="173.84" cy="328.33" rx="4.28" ry="5.96"
          transform="translate(-195.73 290.41) rotate(-56.24)" />
        <ellipse class="cls-22" cx="196.28" cy="328.85" rx="4.28" ry="5.96"
          transform="translate(-186.19 309.3) rotate(-56.24)" />
        <ellipse class="cls-22" cx="218.72" cy="329.38" rx="4.28" ry="5.96"
          transform="translate(-176.66 328.19) rotate(-56.24)" />
        <path class="cls-22"
          d="M246.45,330c.83,2.69-.87,4.81-3.79,4.74a7.69,7.69,0,0,1-6.79-5c-.83-2.69.87-4.81,3.79-4.74A7.69,7.69,0,0,1,246.45,330Z" />
        <ellipse class="cls-22" cx="263.6" cy="330.43" rx="4.28" ry="5.96"
          transform="translate(-157.59 365.97) rotate(-56.24)" />
        <path class="cls-22"
          d="M285.31,326.16a6.48,6.48,0,0,0-.77-.07c-2.92-.07-4.62,2.05-3.79,4.74a7.69,7.69,0,0,0,6.78,5,4.41,4.41,0,0,0,.74,0Z" />
        <path class="cls-22"
          d="M105.86,341.69c.83,2.68-.87,4.8-3.79,4.73a7.66,7.66,0,0,1-6.78-5c-.83-2.69.87-4.81,3.79-4.74A7.67,7.67,0,0,1,105.86,341.69Z" />
        <ellipse class="cls-22" cx="123.01" cy="342.09" rx="4.28" ry="5.96"
          transform="translate(-229.75 254.26) rotate(-56.24)" />
        <ellipse class="cls-22" cx="145.45" cy="342.61" rx="4.28" ry="5.96"
          transform="translate(-220.22 273.16) rotate(-56.24)" />
        <ellipse class="cls-22" cx="167.89" cy="343.14" rx="4.28" ry="5.96"
          transform="translate(-210.68 292.05) rotate(-56.24)" />
        <ellipse class="cls-22" cx="190.33" cy="343.66" rx="4.28" ry="5.96"
          transform="translate(-201.15 310.93) rotate(-56.24)" />
        <ellipse class="cls-22" cx="212.77" cy="344.19" rx="4.28" ry="5.96"
          transform="translate(-191.62 329.83) rotate(-56.24)" />
        <ellipse class="cls-22" cx="235.21" cy="344.71" rx="4.28" ry="5.96"
          transform="translate(-182.08 348.71) rotate(-56.24)" />
        <ellipse class="cls-22" cx="257.65" cy="345.24" rx="4.28" ry="5.96"
          transform="translate(-172.55 367.6) rotate(-56.24)" />
        <ellipse class="cls-22" cx="280.09" cy="345.76" rx="4.28" ry="5.96"
          transform="translate(-163.01 386.49) rotate(-56.24)" />
        <ellipse class="cls-22" cx="115.77" cy="356.81" rx="4.28" ry="5.96"
          transform="translate(-245.21 254.78) rotate(-56.24)" />
        <ellipse class="cls-22" cx="138.21" cy="357.33" rx="4.28" ry="5.96"
          transform="translate(-235.68 273.67) rotate(-56.24)" />
        <ellipse class="cls-22" cx="160.65" cy="357.86" rx="4.28" ry="5.96"
          transform="translate(-226.14 292.56) rotate(-56.24)" />
        <path class="cls-22"
          d="M188.37,358.51c.83,2.68-.87,4.8-3.79,4.73a7.66,7.66,0,0,1-6.78-5c-.83-2.69.87-4.81,3.79-4.74A7.67,7.67,0,0,1,188.37,358.51Z" />
        <ellipse class="cls-22" cx="205.52" cy="358.91" rx="4.28" ry="5.96"
          transform="translate(-207.07 330.34) rotate(-56.24)" />
        <ellipse class="cls-22" cx="227.96" cy="359.43" rx="4.28" ry="5.96"
          transform="translate(-197.54 349.23) rotate(-56.24)" />
        <ellipse class="cls-22" cx="250.4" cy="359.96" rx="4.28" ry="5.96"
          transform="translate(-188.01 368.12) rotate(-56.24)" />
        <ellipse class="cls-22" cx="272.84" cy="360.48" rx="4.28" ry="5.96"
          transform="translate(-178.47 387.01) rotate(-56.24)" />
        <path class="cls-22"
          d="M294.58,356.22a7.29,7.29,0,0,0-.79-.08c-2.92-.06-4.62,2.06-3.8,4.74a7.69,7.69,0,0,0,6.79,5,6.34,6.34,0,0,0,.76,0Z" />
        <ellipse class="cls-22" cx="409.35" cy="114.98" rx="5.96" ry="4.28"
          transform="translate(149.5 451.53) rotate(-68.02)" />
        <ellipse class="cls-22" cx="391.1" cy="128.05" rx="5.96" ry="4.28"
          transform="translate(125.96 442.78) rotate(-68.02)" />
        <path class="cls-22"
          d="M368.54,144.19c.83,2.69,3.43,3.48,5.81,1.78a7.69,7.69,0,0,0,2.8-7.94c-.83-2.68-3.43-3.48-5.81-1.78A7.69,7.69,0,0,0,368.54,144.19Z" />
        <ellipse class="cls-22" cx="354.59" cy="154.18" rx="5.96" ry="4.28"
          transform="translate(78.89 425.28) rotate(-68.02)" />
        <ellipse class="cls-22" cx="336.34" cy="167.24" rx="5.96" ry="4.28"
          transform="translate(55.36 416.53) rotate(-68.02)" />
        <ellipse class="cls-22" cx="318.09" cy="180.31" rx="5.96" ry="4.28"
          transform="translate(31.82 407.78) rotate(-68.02)" />
        <ellipse class="cls-22" cx="299.84" cy="193.38" rx="5.96" ry="4.28"
          transform="translate(8.29 399.03) rotate(-68.02)" />
        <ellipse class="cls-22" cx="281.59" cy="206.44" rx="5.96" ry="4.28"
          transform="matrix(0.37, -0.93, 0.93, 0.37, -15.25, 390.29)" />
        <ellipse class="cls-22" cx="263.34" cy="219.51" rx="5.96" ry="4.28"
          transform="translate(-38.78 381.54) rotate(-68.02)" />
        <ellipse class="cls-22" cx="405.37" cy="136.13" rx="5.96" ry="4.28"
          transform="translate(127.39 461.08) rotate(-68.02)" />
        <ellipse class="cls-22" cx="387.12" cy="149.2" rx="5.96" ry="4.28"
          transform="translate(103.86 452.33) rotate(-68.02)" />
        <ellipse class="cls-22" cx="368.87" cy="162.26" rx="5.96" ry="4.28"
          transform="translate(80.32 443.58) rotate(-68.02)" />
        <ellipse class="cls-22" cx="350.62" cy="175.33" rx="5.96" ry="4.28"
          transform="translate(56.79 434.83) rotate(-68.02)" />
        <ellipse class="cls-22" cx="332.37" cy="188.4" rx="5.96" ry="4.28"
          transform="translate(33.25 426.08) rotate(-68.02)" />
        <ellipse class="cls-22" cx="314.12" cy="201.46" rx="5.96" ry="4.28"
          transform="translate(9.72 417.33) rotate(-68.02)" />
        <ellipse class="cls-22" cx="295.87" cy="214.53" rx="5.96" ry="4.28"
          transform="translate(-13.82 408.58) rotate(-68.02)" />
        <ellipse class="cls-22" cx="277.62" cy="227.6" rx="5.96" ry="4.28"
          transform="translate(-37.35 399.83) rotate(-68.02)" />
        <path class="cls-22"
          d="M257.32,236.25a4.89,4.89,0,0,1,.55-.45c2.37-1.7,5-.9,5.8,1.78a7.69,7.69,0,0,1-2.8,7.94,6.22,6.22,0,0,1-.59.36Z" />
        <ellipse class="cls-22" cx="418.63" cy="145.03" rx="5.96" ry="4.28"
          transform="translate(127.44 478.93) rotate(-68.02)" />
        <ellipse class="cls-22" cx="400.38" cy="158.09" rx="5.96" ry="4.28"
          transform="translate(103.91 470.18) rotate(-68.02)" />
        <ellipse class="cls-22" cx="382.12" cy="171.16" rx="5.96" ry="4.28"
          transform="translate(80.37 461.43) rotate(-68.02)" />
        <path class="cls-22"
          d="M359.57,187.3c.83,2.69,3.43,3.48,5.8,1.78a7.69,7.69,0,0,0,2.81-7.94c-.83-2.68-3.43-3.48-5.81-1.78A7.69,7.69,0,0,0,359.57,187.3Z" />
        <ellipse class="cls-22" cx="345.62" cy="197.29" rx="5.96" ry="4.28"
          transform="translate(33.3 443.93) rotate(-68.02)" />
        <ellipse class="cls-22" cx="327.37" cy="210.36" rx="5.96" ry="4.28"
          transform="translate(9.77 435.18) rotate(-68.02)" />
        <path class="cls-22"
          d="M304.82,226.5c.83,2.69,3.43,3.48,5.8,1.78a7.67,7.67,0,0,0,2.8-7.94c-.83-2.68-3.42-3.48-5.8-1.78A7.67,7.67,0,0,0,304.82,226.5Z" />
        <ellipse class="cls-22" cx="290.87" cy="236.49" rx="5.96" ry="4.28"
          transform="translate(-37.3 417.69) rotate(-68.02)" />
        <ellipse class="cls-22" cx="272.62" cy="249.55" rx="5.96" ry="4.28"
          transform="translate(-60.84 408.94) rotate(-68.02)" />
        <ellipse class="cls-22" cx="414.65" cy="166.18" rx="5.96" ry="4.28"
          transform="translate(105.34 488.48) rotate(-68.02)" />
        <ellipse class="cls-22" cx="396.4" cy="179.24" rx="5.96" ry="4.28"
          transform="translate(81.81 479.73) rotate(-68.02)" />
        <ellipse class="cls-22" cx="378.15" cy="192.31" rx="5.96" ry="4.28"
          transform="translate(58.27 470.98) rotate(-68.02)" />
        <ellipse class="cls-22" cx="359.9" cy="205.38" rx="5.96" ry="4.28"
          transform="translate(34.74 462.23) rotate(-68.02)" />
        <ellipse class="cls-22" cx="341.65" cy="218.44" rx="5.96" ry="4.28"
          transform="translate(11.2 453.48) rotate(-68.02)" />
        <ellipse class="cls-22" cx="323.4" cy="231.51" rx="5.96" ry="4.28"
          transform="translate(-12.33 444.74) rotate(-68.02)" />
        <ellipse class="cls-22" cx="305.15" cy="244.57" rx="5.96" ry="4.28"
          transform="translate(-35.87 435.98) rotate(-68.02)" />
        <ellipse class="cls-22" cx="286.9" cy="257.64" rx="5.96" ry="4.28"
          transform="translate(-59.41 427.24) rotate(-68.02)" />
        <path class="cls-22"
          d="M266.58,266.31c.18-.16.37-.32.56-.46,2.38-1.71,5-.91,5.81,1.78a7.69,7.69,0,0,1-2.8,7.94,4.76,4.76,0,0,1-.6.36Z" />
        <ellipse class="cls-22" cx="427.91" cy="175.07" rx="5.96" ry="4.28"
          transform="translate(105.39 506.33) rotate(-68.02)" />
        <ellipse class="cls-22" cx="409.65" cy="188.14" rx="5.96" ry="4.28"
          transform="translate(81.85 497.58) rotate(-68.02)" />
        <ellipse class="cls-22" cx="391.4" cy="201.2" rx="5.96" ry="4.28"
          transform="translate(58.32 488.83) rotate(-68.02)" />
        <ellipse class="cls-22" cx="373.15" cy="214.27" rx="5.96" ry="4.28"
          transform="translate(34.78 480.08) rotate(-68.02)" />
        <ellipse class="cls-22" cx="354.9" cy="227.33" rx="5.96" ry="4.28"
          transform="translate(11.24 471.33) rotate(-68.02)" />
        <path class="cls-22"
          d="M332.35,243.48c.83,2.68,3.43,3.48,5.8,1.78a7.67,7.67,0,0,0,2.8-7.94c-.83-2.68-3.42-3.48-5.8-1.78A7.67,7.67,0,0,0,332.35,243.48Z" />
        <ellipse class="cls-22" cx="318.4" cy="253.47" rx="5.96" ry="4.28"
          transform="translate(-35.82 453.84) rotate(-68.02)" />
        <ellipse class="cls-22" cx="300.15" cy="266.53" rx="5.96" ry="4.28"
          transform="translate(-59.36 445.09) rotate(-68.02)" />
        <ellipse class="cls-22" cx="281.9" cy="279.6" rx="5.96" ry="4.28"
          transform="translate(-82.9 436.34) rotate(-68.02)" />
        <ellipse class="cls-22" cx="423.93" cy="196.22" rx="5.96" ry="4.28"
          transform="translate(83.29 515.88) rotate(-68.02)" />
        <ellipse class="cls-22" cx="405.68" cy="209.29" rx="5.96" ry="4.28"
          transform="translate(59.75 507.13) rotate(-68.02)" />
        <ellipse class="cls-22" cx="387.43" cy="222.35" rx="5.96" ry="4.28"
          transform="translate(36.22 498.38) rotate(-68.02)" />
        <ellipse class="cls-22" cx="369.18" cy="235.42" rx="5.96" ry="4.28"
          transform="translate(12.68 489.64) rotate(-68.02)" />
        <path class="cls-22"
          d="M346.63,251.57c.82,2.68,3.42,3.48,5.8,1.78a7.69,7.69,0,0,0,2.8-7.94c-.83-2.69-3.43-3.48-5.8-1.78A7.67,7.67,0,0,0,346.63,251.57Z" />
        <ellipse class="cls-22" cx="332.68" cy="261.55" rx="5.96" ry="4.28"
          transform="translate(-34.39 472.14) rotate(-68.02)" />
        <ellipse class="cls-22" cx="314.43" cy="274.62" rx="5.96" ry="4.28"
          transform="translate(-57.93 463.39) rotate(-68.02)" />
        <ellipse class="cls-22" cx="296.18" cy="287.68" rx="5.96" ry="4.28"
          transform="translate(-81.46 454.64) rotate(-68.02)" />
        <path class="cls-22"
          d="M275.85,296.37a6.57,6.57,0,0,1,.57-.48c2.38-1.7,5-.9,5.81,1.78a7.69,7.69,0,0,1-2.8,7.94,4.05,4.05,0,0,1-.62.37Z" />
        <path class="cls-22"
          d="M432.88,208.19c.83,2.69,3.43,3.49,5.81,1.79a7.7,7.7,0,0,0,2.8-7.94c-.83-2.69-3.43-3.49-5.81-1.79A7.7,7.7,0,0,0,432.88,208.19Z" />
        <ellipse class="cls-22" cx="418.93" cy="218.18" rx="5.96" ry="4.28"
          transform="translate(59.8 524.99) rotate(-68.02)" />
        <ellipse class="cls-22" cx="400.68" cy="231.25" rx="5.96" ry="4.28"
          transform="translate(36.26 516.23) rotate(-68.02)" />
        <ellipse class="cls-22" cx="382.43" cy="244.31" rx="5.96" ry="4.28"
          transform="translate(12.73 507.49) rotate(-68.02)" />
        <ellipse class="cls-22" cx="364.18" cy="257.38" rx="5.96" ry="4.28"
          transform="translate(-10.81 498.74) rotate(-68.02)" />
        <ellipse class="cls-22" cx="345.93" cy="270.45" rx="5.96" ry="4.28"
          transform="translate(-34.34 489.99) rotate(-68.02)" />
        <ellipse class="cls-22" cx="327.68" cy="283.51" rx="5.96" ry="4.28"
          transform="translate(-57.88 481.24) rotate(-68.02)" />
        <ellipse class="cls-22" cx="309.43" cy="296.58" rx="5.96" ry="4.28"
          transform="translate(-81.41 472.49) rotate(-68.02)" />
        <ellipse class="cls-22" cx="291.18" cy="309.64" rx="5.96" ry="4.28"
          transform="translate(-104.95 463.74) rotate(-68.02)" />
        <ellipse class="cls-22" cx="433.21" cy="226.27" rx="5.96" ry="4.28"
          transform="translate(61.23 543.29) rotate(-68.02)" />
        <ellipse class="cls-22" cx="414.96" cy="239.33" rx="5.96" ry="4.28"
          transform="translate(37.69 534.53) rotate(-68.02)" />
        <ellipse class="cls-22" cx="396.71" cy="252.4" rx="5.96" ry="4.28"
          transform="translate(14.16 525.79) rotate(-68.02)" />
        <path class="cls-22"
          d="M374.16,268.55c.82,2.68,3.42,3.48,5.8,1.78a7.7,7.7,0,0,0,2.8-7.94c-.83-2.69-3.43-3.49-5.8-1.78A7.67,7.67,0,0,0,374.16,268.55Z" />
        <ellipse class="cls-22" cx="360.21" cy="278.53" rx="5.96" ry="4.28"
          transform="translate(-32.91 508.29) rotate(-68.02)" />
        <ellipse class="cls-22" cx="341.96" cy="291.6" rx="5.96" ry="4.28"
          transform="translate(-56.44 499.54) rotate(-68.02)" />
        <ellipse class="cls-22" cx="323.71" cy="304.66" rx="5.96" ry="4.28"
          transform="translate(-79.98 490.79) rotate(-68.02)" />
        <ellipse class="cls-22" cx="305.45" cy="317.73" rx="5.96" ry="4.28"
          transform="translate(-103.51 482.04) rotate(-68.02)" />
        <path class="cls-22"
          d="M285.11,326.43a4.51,4.51,0,0,1,.59-.49c2.38-1.71,5-.91,5.81,1.78a7.7,7.7,0,0,1-2.81,7.94,5.27,5.27,0,0,1-.63.38Z" />
        <path class="cls-22"
          d="M442.16,238.24c.83,2.68,3.43,3.48,5.8,1.78a7.7,7.7,0,0,0,2.81-7.94c-.83-2.68-3.43-3.48-5.81-1.78A7.69,7.69,0,0,0,442.16,238.24Z" />
        <path class="cls-22"
          d="M423.91,251.31c.83,2.68,3.43,3.48,5.8,1.78a7.67,7.67,0,0,0,2.8-7.94c-.82-2.69-3.42-3.49-5.8-1.78A7.69,7.69,0,0,0,423.91,251.31Z" />
        <ellipse class="cls-22" cx="409.96" cy="261.29" rx="5.96" ry="4.28"
          transform="translate(14.21 543.64) rotate(-68.02)" />
        <ellipse class="cls-22" cx="391.71" cy="274.36" rx="5.96" ry="4.28"
          transform="translate(-9.33 534.89) rotate(-68.02)" />
        <ellipse class="cls-22" cx="373.46" cy="287.42" rx="5.96" ry="4.28"
          transform="matrix(0.37, -0.93, 0.93, 0.37, -32.86, 526.14)" />
        <ellipse class="cls-22" cx="355.21" cy="300.49" rx="5.96" ry="4.28"
          transform="translate(-56.4 517.39) rotate(-68.02)" />
        <path class="cls-22"
          d="M332.66,316.64c.82,2.68,3.42,3.48,5.8,1.78a7.69,7.69,0,0,0,2.8-7.94c-.83-2.69-3.43-3.49-5.8-1.78A7.67,7.67,0,0,0,332.66,316.64Z" />
        <path class="cls-22"
          d="M314.4,329.7c.83,2.69,3.43,3.48,5.81,1.78a7.69,7.69,0,0,0,2.8-7.94c-.83-2.68-3.43-3.48-5.8-1.78A7.7,7.7,0,0,0,314.4,329.7Z" />
        <ellipse class="cls-22" cx="300.46" cy="339.69" rx="5.96" ry="4.28"
          transform="translate(-127 491.15) rotate(-68.02)" />
        <ellipse class="cls-22" cx="442.49" cy="256.31" rx="5.96" ry="4.28"
          transform="translate(39.18 570.69) rotate(-68.02)" />
        <ellipse class="cls-22" cx="424.24" cy="269.38" rx="5.96" ry="4.28"
          transform="translate(15.64 561.94) rotate(-68.02)" />
        <ellipse class="cls-22" cx="405.99" cy="282.44" rx="5.96" ry="4.28"
          transform="translate(-7.89 553.19) rotate(-68.02)" />
        <ellipse class="cls-22" cx="387.74" cy="295.51" rx="5.96" ry="4.28"
          transform="translate(-31.43 544.44) rotate(-68.02)" />
        <ellipse class="cls-22" cx="369.49" cy="308.58" rx="5.96" ry="4.28"
          transform="translate(-54.96 535.69) rotate(-68.02)" />
        <ellipse class="cls-22" cx="351.23" cy="321.64" rx="5.96" ry="4.28"
          transform="translate(-78.5 526.94) rotate(-68.02)" />
        <ellipse class="cls-22" cx="332.98" cy="334.71" rx="5.96" ry="4.28"
          transform="translate(-102.03 518.19) rotate(-68.02)" />
        <ellipse class="cls-22" cx="314.73" cy="347.77" rx="5.96" ry="4.28"
          transform="translate(-125.57 509.44) rotate(-68.02)" />
        <path class="cls-22"
          d="M294.37,356.49A7.17,7.17,0,0,1,295,356c2.38-1.7,5-.9,5.8,1.78a7.67,7.67,0,0,1-2.8,7.94,4.86,4.86,0,0,1-.65.39Z" />
      </g>
      <polyline class="cls-10" points="214.29 223.76 242.97 329.35 224.38 328.99 193.06 224.56" />
      <polygon class="cls-10" points="289.88 197.98 322.11 301.29 335.9 289.42 305.74 184.32 289.88 197.98" />
      <path class="cls-23"
        d="M444.46,165s40.83,29.84,17.27,71.56c-32.64,40.74-99.8,15.58-99.8,15.58L390,190.5S404.07,162,444.46,165Z" />
      <path class="cls-11"
        d="M408.62,238.89c-15.26,37.53-46.06,28.17-57.86,12.69-9.41-18.24-.7-66.62,30.07-64.65C388.94,188.17,422,199.21,408.62,238.89Z" />
      <path class="cls-17" d="M437.81,181.54c-20.63-8-44.29,5.05-44.53,5.18l-.85-1.51c.24-.13,24.6-13.6,46-5.28Z" />
      <path class="cls-24"
        d="M373.23,209.88s-25.94-18.95-37.92-11.7,6,18.64,6,18.64-37.14.3-38,13.39.69,51.36,53.41,42.88C400.77,266,392.94,224.49,373.23,209.88Z" />
      <path class="cls-25"
        d="M336.42,234.91c-15.11,4.53-27.41,2.6-32,.07-1-.54-1.48-1.07-1.6-1.63a.74.74,0,0,1,.57-.86.73.73,0,0,1,.85.55c.86,1.72,15.76,6.54,35.89-.92a.73.73,0,0,1,.51,1.37C339.24,234,337.82,234.49,336.42,234.91Z" />
      <path class="cls-25"
        d="M337.6,249.46c-19.35,5.79-31.88,3.27-33.6-1a.73.73,0,0,1,1.36-.54c1.35,3.37,14,6,34.4-.66a.73.73,0,0,1,.92.47.71.71,0,0,1-.46.91C339.33,248.92,338.46,249.2,337.6,249.46Z" />
      <path class="cls-25"
        d="M340.34,262.61c-19.51,5.84-29-.71-29.46-1a.73.73,0,0,1-.17-1,.72.72,0,0,1,1-.17h0c.11.08,11,7.49,33.09-.85a.73.73,0,0,1,.51,1.36Q342.73,261.9,340.34,262.61Z" />
      <path class="cls-25"
        d="M349,216.89a.4.4,0,0,1-.15,0l-7.46.63a.74.74,0,0,1-.79-.67.73.73,0,0,1,.67-.78l7.46-.63a.73.73,0,0,1,.27,1.42Z" />
      <path class="cls-1" d="M115.79,164.35a23.55,23.55,0,0,1,1.18,4.73c-1,0-2,.07-3,.13A27,27,0,0,0,115.79,164.35Z" />
      <path class="cls-1"
        d="M114,169.21c-6.26,12.9-22.5,21-34.09,11.58a1.07,1.07,0,0,1-.16-.14C85.67,174.79,98.72,170.1,114,169.21Z" />
      <path class="cls-26"
        d="M79.74,180.65a1.07,1.07,0,0,0,.16.14c11.59,9.39,27.83,1.32,34.09-11.58,1-.06,2-.1,3-.13,2.74,19.64-21,38.18-36.46,25.66C74.83,190.13,75.27,185.06,79.74,180.65Z" />
      <path class="cls-10"
        d="M108.39,153.62c.66.62,1.28,1.25,1.87,1.88a26.58,26.58,0,0,1,5.52,8.85,23.33,23.33,0,0,0,.58-9.21c-.73-5.27-3.37-10.62-8.59-15.46-24.66-22.92-92.52,3.74-92.52,3.74L25.38,148l-9.5,14.1S83.72,130.71,108.39,153.62Z" />
      <path class="cls-10"
        d="M75.67,173.79h0c-.32-8.36,14.91-16.46,34.55-18.3l0,.05c12.08-.29,31.37,1.4,43.41,7.12,43.39,20.63,49,42.13,49,42.13l-1.81,1.63,2.42,12.31s-5.62-21.49-49-42.13A82.9,82.9,0,0,0,117,169.08v0s-1,0-3,.15c-15.27.89-28.32,5.58-34.25,11.44-3.24,3.36-3.46,6.27-3.48,6.59Z" />
      <path class="cls-10"
        d="M286.61,141s17.45,22.59-9.69,25.48-21.4,31.77-21.4,31.77l5.16-5.55,6.46,5.31s-6.31-23.08,14-27C296.52,168,301,160,298.49,151.71s-5.54-11-5.54-11l.09,3.59Z" />
      <path class="cls-27"
        d="M496.68,485.52c-4.64-6.71-79.65,16.38-98.79,2.32C427.81,452.23,467.11,442.81,496.68,485.52Z" />
      <path class="cls-11"
        d="M392.58,66.16s2.43,6.7-2.16,7c-6.1-5.73-17.85-8.85-22.5-8.27s-1.47-10.2,2.84-11.63S391,59,392.58,66.16Z" />
      <path class="cls-11"
        d="M310.51,54.81s-3.37,4.57.05,5.88c6-3,15.65-2.69,19.08-1.2s3.44-7.45.47-9.53S313.33,49.68,310.51,54.81Z" />
      <polygon class="cls-14" points="18.5 189.29 9.01 116.37 41.23 47.2 53.06 115.33 18.5 189.29" />
      <polygon class="cls-20" points="53.01 115.06 53.06 115.33 18.5 189.29 40.63 193.04 76.37 118.8 53.01 115.06" />
      <polygon class="cls-20" points="53.01 115.06 76.37 118.8 61.48 50.43 41.23 47.2 53.01 115.06" />
      <polygon class="cls-10"
        points="55.63 161.97 32.45 157.88 22.05 88.38 28.46 74.61 40.35 143.03 61.58 150.44 55.63 161.97" />
      <polygon class="cls-10"
        points="14.12 157.35 47.94 85.82 70.05 87.7 66.87 75.4 45.25 70.34 12.72 144.88 14.12 157.35" />
      <path class="cls-10"
        d="M4.17,165c13.66,13,30.08-20.58,28.89-44.07C33.06,120.89-14,147.63,4.17,165Zm9.88-14.35c-11.43-10.92,18.19-27.75,18.19-27.75C33,137.65,22.65,158.81,14.05,150.61Z" />
      <path class="cls-28"
        d="M9.35,86.82S11,84,16.81,86s17.83,28.28,17.83,28.28l-3,7.13S4.53,120.07,4.1,104.23C7.32,93.83,9.35,86.82,9.35,86.82Z" />
      <path class="cls-10"
        d="M32.82,123.87c-1.2-.18-28.89,2.69-30.93-10.54A257.77,257.77,0,0,1,9.35,86.82S9,104.74,34.64,114.31C36.21,125.22,32.82,123.87,32.82,123.87Z" />
      <path class="cls-10"
        d="M33.41,117.7c9-24.78,2.37-66.16-16.53-56.66C-8.24,73.67,33.41,117.7,33.41,117.7Zm-.24-2.38S7,87.6,22.77,79.65C34.67,73.67,38.82,99.72,33.17,115.32Z" />
      <polygon class="cls-10" points="36.05 113.8 33.15 133.18 22.68 133.01 25.98 110.9 36.05 113.8" />
      <path class="cls-28"
        d="M33,121a31.34,31.34,0,0,1-1.13,8.22,16.43,16.43,0,0,1-1.57,3.55c-.07.13-.16.27-.24.4l3.06.05,2.9-19.38-3.31-1A79.31,79.31,0,0,1,33,121Z" />
    </g>
  </g>
</svg>